# xmcd CD database file
#
# Track frame offsets:
#	150
#	18687
#	44862
#	63012
#	76662
#	95337
#	111200
#	129260
#	141060
#	156937
#
# Disc length: 2426 seconds
#
# Revision: 2
# Processed by: cddbd v1.5.2PL0 Copyright (c) Steve Scherf et al.
# Submitted via: CdAid (MTCDDB.DLL V2003.12.21)
#
DISCID=7d09780a
DTITLE=Phoebe Snow - Second Childhood
DYEAR=1976
DGENRE=Blues
TTITLE0=Two Fisted Love
TTITLE1=Cash In
TTITLE2=Inspired Insanity
TTITLE3=No Regrets
TTITLE4=Sweet Disposition
TTITLE5=All Over
TTITLE6=Isn't It A Shame
TTITLE7=Goin' Down For The Third Time
TTITLE8=Pre-Dawn Imagination
TTITLE9=There's A Boat That's Leavin' Soon For New York
EXTD=ID3G:   0 YEAR: 1976
EXTT0=
EXTT1=
EXTT2=
EXTT3=
EXTT4=
EXTT5=
EXTT6=
EXTT7=
EXTT8=
EXTT9=
PLAYORDER=
